<?xml version="1.0" encoding="UTF-8"?>
<svg version="1.1" xmlns="http://www.w3.org/2000/svg" width="256" height="256">
<path d="M0 0 C0.85682373 0.55961426 1.71364746 1.11922852 2.59643555 1.69580078 C3.50176025 2.3092334 4.40708496 2.92266602 5.33984375 3.5546875 C7.30571705 4.84676892 9.27187085 6.13842364 11.23828125 7.4296875 C12.23956055 8.09484375 13.24083984 8.76 14.27246094 9.4453125 C18.9641115 12.54360108 23.71488254 15.54689887 28.46484375 18.5546875 C30.2892038 19.71592387 32.11342374 20.87738039 33.9375 22.0390625 C38.27276586 24.79536232 42.61751962 27.53623858 46.96655273 30.27075195 C50.05043108 32.21281947 53.12700713 34.16627655 56.203125 36.12060547 C58.15696477 37.35371385 60.12180323 38.56708205 62.08984375 39.77734375 C63.18296875 40.46699219 64.27609375 41.15664063 65.40234375 41.8671875 C66.33304688 42.44339844 67.26375 43.01960938 68.22265625 43.61328125 C70.27734375 45.4296875 70.27734375 45.4296875 71.140625 47.9453125 C71.31616202 51.13507092 70.44232559 53.48296873 69.27734375 56.4296875 C70.00155518 56.69595947 70.7257666 56.96223145 71.47192383 57.23657227 C74.28579799 58.433283 76.62177814 59.82658344 79.1640625 61.51953125 C80.09387939 62.13376953 81.02369629 62.74800781 81.98168945 63.38085938 C82.96613037 64.03634766 83.95057129 64.69183594 84.96484375 65.3671875 C92.26586482 70.18564197 99.59860052 74.9123994 107.08984375 79.4296875 C109.19709314 80.71469781 111.30279932 82.00218662 113.40771484 83.29101562 C115.13497933 84.3429824 116.87178093 85.3792468 118.609375 86.4140625 C125.0396984 90.4791061 125.0396984 90.4791061 126.08984375 94.6796875 C125.43412073 97.70610145 124.64980199 100.58918904 123.77734375 103.5546875 C120.87193392 113.69595134 122.06652374 123.04061211 124.62109375 133.140625 C125.32082142 136.64759345 125.38570243 139.86288102 125.27734375 143.4296875 C118.53667974 147.25851336 109.90692896 147.77648683 102.27734375 147.4296875 C102.31214844 148.14253906 102.34695312 148.85539063 102.3828125 149.58984375 C102.59288633 157.02245592 102.30279449 162.097862 97.1171875 167.80859375 C93.93792727 170.74295911 90.62007392 173.10041912 87.02734375 175.4921875 C85.59308195 176.46255499 84.15951067 177.43394372 82.7265625 178.40625 C81.99099121 178.90415039 81.25541992 179.40205078 80.49755859 179.91503906 C76.91612786 182.35831993 73.37731796 184.8608616 69.83984375 187.3671875 C69.13569336 187.86549072 68.43154297 188.36379395 67.70605469 188.87719727 C66.27664113 189.88902019 64.84744196 190.90114604 63.41845703 191.91357422 C59.87437062 194.42312686 56.32558117 196.92600939 52.77734375 199.4296875 C52.07544922 199.92533203 51.37355469 200.42097656 50.65039062 200.93164062 C47.12324548 203.42234275 43.59451441 205.91073813 40.0625 208.39453125 C31.74396872 214.24884666 23.46649151 220.15397752 15.25219727 226.15405273 C13.86377282 227.16351452 12.46949489 228.16499495 11.06835938 229.15673828 C9.63329025 230.17670153 8.22410091 231.23303673 6.82421875 232.30078125 C-0.30850603 235.46237245 -9.51665 232.79529675 -16.88012695 231.44189453 C-18.65736397 231.12484558 -18.65736397 231.12484558 -20.47050476 230.8013916 C-23.69437063 230.2244794 -26.91687316 229.64060359 -30.1388247 229.0531106 C-33.5206318 228.4378555 -36.90387609 227.83059762 -40.28691101 227.22213745 C-45.96092023 226.20032909 -51.63374854 225.17215949 -57.3059082 224.14013672 C-63.85908528 222.94789652 -70.41401788 221.76572205 -76.96997768 220.58888733 C-83.2901572 219.45414501 -89.60905356 218.3124076 -95.92738914 217.16744614 C-98.61149495 216.68117371 -101.29602258 216.19733536 -103.98092079 215.71545792 C-107.72579468 215.04177547 -111.469132 214.36013277 -115.2121582 213.67626953 C-116.88056259 213.37848099 -116.88056259 213.37848099 -118.58267212 213.07467651 C-119.60169113 212.8868158 -120.62071014 212.69895508 -121.67060852 212.50540161 C-122.99704864 212.26481364 -122.99704864 212.26481364 -124.35028553 212.01936531 C-126.70662091 211.43367325 -128.60480159 210.60259548 -130.72265625 209.4296875 C-130.96585737 203.84343137 -130.05602594 199.19173626 -128.66015625 193.8046875 C-126.07860112 182.99573714 -126.58300266 173.74950619 -130.1015625 163.16015625 C-130.98352074 159.28286813 -131.14786148 156.42976638 -130.72265625 152.4296875 C-128.546875 149.91796875 -128.546875 149.91796875 -125.41015625 147.7421875 C-124.83765137 147.33411865 -124.26514648 146.9260498 -123.67529297 146.50561523 C-121.71001786 145.11740366 -119.71880417 143.7730798 -117.72265625 142.4296875 C-116.19968179 141.3840335 -114.67757836 140.33710998 -113.15625 139.2890625 C-110.74781352 137.63464849 -108.3367176 135.98477858 -105.91748047 134.34619141 C-98.37295418 129.23499129 -91.02642735 123.87749285 -83.72265625 118.4296875 C-84.30756836 118.07777344 -84.89248047 117.72585937 -85.49511719 117.36328125 C-88.16743666 115.73932511 -90.8196882 114.08505186 -93.47265625 112.4296875 C-94.39304688 111.87667969 -95.3134375 111.32367188 -96.26171875 110.75390625 C-100.90789316 107.8247963 -105.07878957 105.18225221 -107.21875 99.96923828 C-108.54977415 93.26123768 -107.68585822 85.97842133 -107.18798828 79.19018555 C-106.86445843 74.49582038 -106.71286739 70.06326234 -107.72265625 65.4296875 C-110.63565241 62.10802407 -113.83638769 60.42050606 -117.72265625 58.4296875 C-120.15011202 56.38772921 -120.68740548 55.53543981 -121.72265625 52.4296875 C-121.98490788 47.99644298 -121.95412663 43.55734781 -121.97265625 39.1171875 C-121.99328125 37.89322266 -122.01390625 36.66925781 -122.03515625 35.40820312 C-122.0403125 34.22291016 -122.04546875 33.03761719 -122.05078125 31.81640625 C-122.0647998 30.19545044 -122.0647998 30.19545044 -122.07910156 28.54174805 C-121.48745323 23.37617184 -119.64702802 20.38502395 -116.05517578 16.67285156 C-112.51203464 13.96183941 -108.73624504 13.2096356 -104.40234375 12.5390625 C-103.52005096 12.38661072 -102.63775818 12.23415894 -101.72872925 12.0770874 C-99.63773273 11.72008956 -97.54498855 11.37325019 -95.4510498 11.03393555 C-91.97863471 10.47117306 -88.50948302 9.89196511 -85.04071426 9.30730438 C-75.48025085 7.69624572 -65.91310972 6.12794781 -56.34326172 4.57373047 C-51.72842346 3.82409172 -47.11489791 3.06666977 -42.5016346 2.30740738 C-38.91626075 1.71853234 -35.33007823 1.13470613 -31.74364853 0.5522995 C-30.04099381 0.27499736 -28.33862726 -0.00408069 -26.63656998 -0.28502655 C-24.26781564 -0.67545116 -21.89801593 -1.05879342 -19.52783203 -1.44042969 C-18.83793182 -1.55570511 -18.14803162 -1.67098053 -17.43722534 -1.78974915 C-5.51595243 -3.68286907 -5.51595243 -3.68286907 0 0 Z " fill="#030302" transform="translate(130.72265625,12.5703125)"/>
<path d="M0 0 C6.82609866 0.6911337 13.55112773 1.69749274 20.3125 2.85546875 C21.92454315 3.12865685 21.92454315 3.12865685 23.56915283 3.40736389 C27.04661388 3.99777906 30.52335179 4.59231846 34 5.1875 C35.18750854 5.39008423 36.37501709 5.59266846 37.59851074 5.8013916 C55.56820246 8.86755472 73.52927029 11.96908971 91.44433594 15.34130859 C95.10720059 16.01985905 98.77536542 16.66175256 102.4453125 17.30078125 C104.75538364 17.72039021 107.0652891 18.14091262 109.375 18.5625 C110.41688477 18.73620117 111.45876953 18.90990234 112.53222656 19.08886719 C113.47807617 19.26708008 114.42392578 19.44529297 115.3984375 19.62890625 C116.22005371 19.77400635 117.04166992 19.91910645 117.88818359 20.06860352 C120.99105254 21.43709427 121.68811146 22.89407142 123 26 C123.26361797 28.7725027 123.37467135 31.30898236 123.328125 34.07421875 C123.32625183 34.83926224 123.32437866 35.60430573 123.32244873 36.39253235 C123.31575076 38.00204864 123.30188124 39.61154927 123.28125 41.22094727 C123.24997125 43.68976903 123.2402635 46.15795242 123.234375 48.62695312 C123.22520919 50.19271616 123.21483476 51.75847268 123.203125 53.32421875 C123.19887512 54.06379318 123.19462524 54.80336761 123.19024658 55.56535339 C123.11725137 60.76549726 123.11725137 60.76549726 122 63 C116.771023 63.10839118 112.0682908 62.81784819 106.91015625 61.8203125 C106.23306107 61.69214645 105.55596588 61.56398041 104.85835266 61.43193054 C103.37584152 61.15087077 101.89391963 60.86668884 100.41253662 60.57974243 C96.24036726 59.77240929 92.06344326 58.99039831 87.88671875 58.20703125 C86.96973206 58.03461411 86.05274536 57.86219696 85.10797119 57.68455505 C70.99811622 55.045928 56.84821654 52.62556225 42.70437622 50.17706299 C28.09301714 47.64688143 13.52205571 45.00352433 -1 42 C-0.52929693 38.17164795 -0.05843161 34.36293438 0.5546875 30.5546875 C1.0771498 26.3841551 1.14980121 22.32260469 1.125 18.125 C1.12306641 17.33432129 1.12113281 16.54364258 1.11914062 15.72900391 C1.07976597 10.42108198 0.77880772 5.25695213 0 0 Z " fill="#E1D9C6" transform="translate(11,174)"/>
<path d="M0 0 C0.73645752 0.47614746 1.47291504 0.95229492 2.23168945 1.44287109 C3.00601318 1.96059082 3.78033691 2.47831055 4.578125 3.01171875 C6.27452411 4.11491474 7.97114477 5.21777011 9.66796875 6.3203125 C10.5276123 6.88476074 11.38725586 7.44920898 12.27294922 8.03076172 C16.19833324 10.59392571 20.17021057 13.08163649 24.140625 15.57421875 C34.72345975 22.2505102 45.27562336 28.97512931 55.828125 35.69921875 C52.06711876 37.97459991 48.03649514 38.51885595 43.76953125 39.21484375 C42.56253822 39.41952522 42.56253822 39.41952522 41.3311615 39.62834167 C38.68536759 40.07517641 36.03811088 40.51252953 33.390625 40.94921875 C31.55332329 41.25622021 29.71608436 41.56359761 27.87890625 41.87133789 C24.08677138 42.50509245 20.29391497 43.13427983 16.50048828 43.76025391 C11.92699347 44.5155162 7.35569624 45.28310945 2.78514099 46.05593872 C-0.56956739 46.62188282 -3.92536766 47.18112042 -7.28152466 47.73840332 C-8.86073488 48.00155462 -10.43958203 48.26689512 -12.01803589 48.5345459 C-34.20168785 52.28629969 -34.20168785 52.28629969 -44.046875 45.44921875 C-45.72490175 44.33669841 -47.4032974 43.22473433 -49.08203125 42.11328125 C-50.35264404 41.25718262 -50.35264404 41.25718262 -51.64892578 40.38378906 C-55.54371961 37.78323967 -59.51477302 35.30836182 -63.484375 32.82421875 C-65.04086515 31.84063544 -66.59684445 30.85624331 -68.15234375 29.87109375 C-71.83719922 27.53975259 -75.52899545 25.21970604 -79.22265625 22.90234375 C-81.24750022 21.62646773 -83.27224162 20.35042891 -85.296875 19.07421875 C-86.74767456 18.16760498 -86.74767456 18.16760498 -88.2277832 17.24267578 C-89.11941162 16.67919434 -90.01104004 16.11571289 -90.9296875 15.53515625 C-92.12295654 14.78564697 -92.12295654 14.78564697 -93.34033203 14.02099609 C-95.171875 12.69921875 -95.171875 12.69921875 -96.171875 10.69921875 C-89.60791219 9.59835512 -83.04378751 8.49854108 -76.4777832 7.40991211 C-75.65593033 7.27363907 -74.83407745 7.13736603 -73.98731995 6.9969635 C-72.24224337 6.70762647 -70.49715637 6.41835238 -68.75205994 6.12913513 C-62.65243121 5.11638455 -56.55573284 4.08720194 -50.46003723 3.05105591 C-46.02316793 2.29891647 -41.58483023 1.55569208 -37.14620972 0.81396484 C-34.96078377 0.44677481 -32.77597985 0.07586262 -30.59182739 -0.29882812 C-27.49897176 -0.82879788 -24.40415358 -1.34547059 -21.30859375 -1.859375 C-20.38704498 -2.02050278 -19.46549622 -2.18163055 -18.51602173 -2.34764099 C-11.85603841 -3.43322734 -5.87751075 -3.87705056 0 0 Z " fill="#0068B1" transform="translate(129.171875,22.30078125)"/>
<path d="M0 0 C-0.0721875 0.65484375 -0.144375 1.3096875 -0.21875 1.984375 C-1.2161021 11.79167068 -1.75374028 21.19274885 0.5625 30.84375 C1 33 1 33 1 37 C-1.36927734 37.38077672 -3.738555 37.76155149 -6.10783386 38.14231873 C-8.26857482 38.48958864 -10.4293107 38.83689009 -12.59004211 39.18421936 C-18.74570311 40.17366695 -24.90145767 41.16252682 -31.05737305 42.15039062 C-43.00888427 44.06888882 -54.95977525 45.990789 -66.90737915 47.93348694 C-71.98840423 48.75946864 -77.06986946 49.58272394 -82.15136719 50.40579224 C-84.57720726 50.79950999 -87.00282927 51.19457383 -89.42822266 51.59103394 C-92.83310867 52.14747273 -96.23872876 52.69920259 -99.64453125 53.25 C-100.63503983 53.41315201 -101.6255484 53.57630402 -102.64607239 53.74440002 C-109.08173097 54.77909871 -115.5018494 55.49094947 -122 56 C-124.19062416 51.61875169 -123.26832802 45.74668656 -123.29516602 40.87915039 C-123.31235449 38.70589761 -123.35623807 36.53417654 -123.40039062 34.36132812 C-123.41052026 32.9739695 -123.41903552 31.58659796 -123.42578125 30.19921875 C-123.44036377 28.93940186 -123.45494629 27.67958496 -123.4699707 26.3815918 C-122.88067547 22.14142124 -122.3386976 20.72117365 -119 18 C-115.26832203 16.82146891 -111.48760785 16.3161946 -107.6171875 15.7890625 C-106.47056137 15.61519516 -105.32393524 15.44132782 -104.14256287 15.26219177 C-100.38931288 14.69706149 -96.63247512 14.16124713 -92.875 13.625 C-90.28764912 13.23992956 -87.70065383 12.85246251 -85.11401367 12.46264648 C-81.192586 11.87205205 -77.27099302 11.28305864 -73.34812927 10.70207214 C-61.64413133 8.96755319 -49.97619253 7.0477691 -38.3125 5.0625 C-7.63936087 -0.14788625 -7.63936087 -0.14788625 0 0 Z " fill="#E1D9C6" transform="translate(245,113)"/>
<path d="M0 0 C-0.16113281 0.84949219 -0.32226562 1.69898437 -0.48828125 2.57421875 C-1.82441492 11.51917473 -1.40004542 20.29983535 1 29 C-6.68095545 30.62529347 -14.36655436 31.80997998 -22.14453125 32.85546875 C-26.46167614 33.45027538 -30.7314519 34.118124 -35 35 C-41.01011105 36.24168045 -47.06494903 37.03827232 -53.14453125 37.85546875 C-58.29935258 38.56568858 -63.37322103 39.45332907 -68.46875 40.50488281 C-72.87278806 41.36632081 -77.30793542 41.9950111 -81.75 42.625 C-83.10931641 42.82609375 -83.10931641 42.82609375 -84.49609375 43.03125 C-85.37910156 43.15757813 -86.26210937 43.28390625 -87.171875 43.4140625 C-87.9565918 43.5270166 -88.74130859 43.6399707 -89.54980469 43.75634766 C-92.37830432 44.03761934 -95.15941761 44.03855296 -98 44 C-98.02891546 39.54168018 -98.04676981 35.08338431 -98.0625 30.625 C-98.07087891 29.35398437 -98.07925781 28.08296875 -98.08789062 26.7734375 C-98.09111328 25.56171875 -98.09433594 24.35 -98.09765625 23.1015625 C-98.10289307 21.98088379 -98.10812988 20.86020508 -98.11352539 19.70556641 C-98 17 -98 17 -97 15 C-94.99731445 14.4375 -94.99731445 14.4375 -92.36328125 14 C-91.4005127 13.8362085 -90.43774414 13.67241699 -89.44580078 13.50366211 C-88.41181152 13.33745361 -87.37782227 13.17124512 -86.3125 13 C-84.7344458 12.7361853 -84.7344458 12.7361853 -83.12451172 12.46704102 C-76.55588246 11.37967681 -69.97980791 10.39423891 -63.3828125 9.49609375 C-58.67376824 8.80550643 -53.99808454 7.95132991 -49.31494141 7.10522461 C-43.76291016 6.11123394 -38.19760059 5.30128395 -32.609375 4.53515625 C-28.47199882 3.92171411 -24.36448625 3.18677767 -20.25 2.4375 C-6.81142042 0 -6.81142042 0 0 0 Z " fill="#E1D9C6" transform="translate(190,67)"/>
<path d="M0 0 C0.13657216 1.39303605 0.23271149 2.79006121 0.3125 4.1875 C0.37050781 4.96480469 0.42851562 5.74210938 0.48828125 6.54296875 C-0.74540575 12.75088176 -8.41718741 16.65119379 -13.3125 20.125 C-14.10648193 20.693396 -14.90046387 21.26179199 -15.71850586 21.84741211 C-21.44471793 25.93251653 -27.2225994 29.93953639 -33.03076172 33.90698242 C-40.0137922 38.67817378 -46.91427281 43.56390443 -53.81494141 48.453125 C-58.27380815 51.60970374 -62.74007395 54.75581778 -67.20483398 57.90405273 C-67.86169189 58.36755127 -68.5185498 58.8310498 -69.1953125 59.30859375 C-69.82727539 59.75315918 -70.45923828 60.19772461 -71.11035156 60.65576172 C-72.40702495 61.57817563 -73.69507228 62.51280049 -74.97558594 63.45751953 C-79.79594749 67 -79.79594749 67 -82 67 C-82.01458252 66.10804932 -82.02916504 65.21609863 -82.04418945 64.29711914 C-82.10570661 60.9475861 -82.17993981 57.59881291 -82.26245117 54.24975586 C-82.29544593 52.8078043 -82.32355477 51.36573148 -82.34643555 49.92358398 C-82.47856387 41.81315384 -82.83150002 34.60270102 -86 27 C-83.14605886 24.9371878 -80.29180549 22.87480802 -77.4375 20.8125 C-76.63763672 20.23435547 -75.83777344 19.65621094 -75.01367188 19.06054688 C-73.42329811 17.91158297 -71.83020614 16.76637187 -70.234375 15.625 C-68.84518977 14.61468347 -67.47177418 13.58182123 -66.125 12.515625 C-62.01471248 9.31873471 -58.30498063 8.05070253 -53.125 7.375 C-51.62100235 7.14512848 -50.11709859 6.91464192 -48.61328125 6.68359375 C-47.84967285 6.57257324 -47.08606445 6.46155273 -46.29931641 6.34716797 C-42.62229477 5.79198377 -38.97015844 5.10655836 -35.3125 4.4375 C-28.90848824 3.29390016 -22.49680762 2.30974379 -16.05078125 1.4296875 C-13.97786298 1.13772718 -11.9097948 0.80951805 -9.84765625 0.44921875 C-6.53387908 -0.07353074 -3.34919555 -0.06698391 0 0 Z " fill="#F8AA0E" transform="translate(224,162)"/>
<path d="M0 0 C3.56230739 1.31519205 6.58428707 2.8873659 9.74609375 4.984375 C10.65560791 5.58338623 11.56512207 6.18239746 12.50219727 6.79956055 C13.47084717 7.44320557 14.43949707 8.08685059 15.4375 8.75 C17.49667791 10.10655915 19.55659362 11.46199891 21.6171875 12.81640625 C22.6700293 13.50879395 23.72287109 14.20118164 24.80761719 14.91455078 C30.77323412 18.81163704 36.79551632 22.6193855 42.81616211 26.43066406 C43.67218018 26.97303711 44.52819824 27.51541016 45.41015625 28.07421875 C46.61514771 28.82856201 46.61514771 28.82856201 47.84448242 29.59814453 C50 31 50 31 53.1171875 33.41015625 C56.88634407 35.48881035 59.93062244 35.12566792 64.0625 34.75 C73.36685665 34.26238223 78.73595684 37.34036289 86 43 C85.5359375 43.8971875 85.5359375 43.8971875 85.0625 44.8125 C83.09385907 48.86558427 82.82009164 52.17128776 82.68359375 56.63671875 C82.64169922 57.93544922 82.59980469 59.23417969 82.55664062 60.57226562 C82.51683013 61.94400761 82.47711784 63.31575244 82.4375 64.6875 C82.39429165 66.07097645 82.35067661 67.45444027 82.30664062 68.83789062 C82.20041972 72.22515719 82.09837642 75.61249799 82 79 C74.36305496 74.98790047 67.11570588 70.59116953 59.9375 65.8125 C53.06468395 61.28236301 46.17408612 56.81364368 39.125 52.5625 C32.1620192 48.34904118 25.2501047 44.05755252 18.37860107 39.69650269 C16.72606711 38.6494366 15.0693773 37.60893861 13.41259766 36.56860352 C10.57277956 34.7598751 7.78025539 32.89856996 5 31 C3.94039062 30.29230469 2.88078125 29.58460937 1.7890625 28.85546875 C-1.31887943 23.89497628 -0.51186128 18.38923268 -0.3125 12.6875 C-0.28994141 11.46998047 -0.26738281 10.25246094 -0.24414062 8.99804688 C-0.1853053 5.99744518 -0.1031414 2.99935203 0 0 Z " fill="#E33330" transform="translate(32,83)"/>
<path d="M0 0 C3.74485905 1.07315594 6.82557751 3.02747195 10.078125 5.1328125 C11.06232422 5.76654785 12.04652344 6.4002832 13.06054688 7.05322266 C14.63932617 8.07875244 14.63932617 8.07875244 16.25 9.125 C17.92088164 10.20290081 19.59176806 11.28079431 21.26293945 12.35824585 C23.00354657 13.48111765 24.742998 14.60576511 26.48242188 15.73046875 C29.94468653 17.9669448 33.41619448 20.18873373 36.890625 22.40625 C37.99889648 23.11378418 39.10716797 23.82131836 40.24902344 24.55029297 C42.36153765 25.89845652 44.4741617 27.24644798 46.58691406 28.59423828 C48.04436035 29.52598877 48.04436035 29.52598877 49.53125 30.4765625 C50.46590088 31.0658252 51.40055176 31.65508789 52.36352539 32.26220703 C55 34 55 34 57.29077148 35.79638672 C63.52433087 40.5914324 68.3845712 40.61130611 76.0625 39.875 C77.11888672 39.80023438 78.17527344 39.72546875 79.26367188 39.6484375 C81.84619153 39.46146775 84.42243726 39.24487326 87 39 C76.46464714 49.73689874 76.46464714 49.73689874 70.65307617 50.17822266 C60.11545495 49.1117456 49.76442785 47.01101429 39.375 45 C35.10744825 44.18262854 30.83899 43.37006358 26.5703125 42.55859375 C24.9223468 42.24467934 24.9223468 42.24467934 23.24108887 41.92442322 C15.12600938 40.38520577 7.00036924 38.91293579 -1.1328125 37.47265625 C-2.27928253 37.26917572 -3.42575256 37.06569519 -4.60696411 36.85604858 C-9.09307062 36.06076193 -13.57932285 35.26658295 -18.06768799 34.48413086 C-21.16586491 33.94387417 -24.26268233 33.39634589 -27.359375 32.84765625 C-28.28009796 32.68967056 -29.20082092 32.53168488 -30.14944458 32.36891174 C-30.9969931 32.217603 -31.84454163 32.06629425 -32.71777344 31.91040039 C-33.45235779 31.78210342 -34.18694214 31.65380646 -34.94378662 31.5216217 C-37.16400028 30.95839629 -38.99314529 30.09253487 -41 29 C-13.4 8.93333333 -13.4 8.93333333 0 0 Z " fill="#EFCD74" transform="translate(56,136)"/>
<path d="M0 0 C3.44369581 1.28479698 6.44013953 2.77574953 9.52734375 4.765625 C10.82248901 5.59549927 10.82248901 5.59549927 12.14379883 6.44213867 C13.06572021 7.03873291 13.9876416 7.63532715 14.9375 8.25 C16.91918166 9.52227432 18.90095511 10.79440569 20.8828125 12.06640625 C22.40310059 13.04504639 22.40310059 13.04504639 23.95410156 14.04345703 C27.8096201 16.52006216 31.67759261 18.97671941 35.54663086 21.43212891 C45.73472718 27.89804934 55.88216602 34.4247498 66 41 C65.84152588 41.54366211 65.68305176 42.08732422 65.51977539 42.64746094 C64.92399019 45.34402563 64.78635695 47.88069895 64.68359375 50.640625 C64.64169922 51.71054688 64.59980469 52.78046875 64.55664062 53.8828125 C64.51732422 54.99398437 64.47800781 56.10515625 64.4375 57.25 C64.37272461 58.93996094 64.37272461 58.93996094 64.30664062 60.6640625 C64.20067985 63.44258954 64.09860858 66.22120391 64 69 C60.24604878 67.62363571 57.06325893 65.8992412 53.7109375 63.7265625 C52.69644531 63.07260498 51.68195313 62.41864746 50.63671875 61.74487305 C49.56035156 61.04531494 48.48398438 60.34575684 47.375 59.625 C45.68119039 58.5308967 43.98639663 57.43832914 42.29156494 56.34580994 C41.15367168 55.61214466 40.01609868 54.87798244 38.87884521 54.14332581 C34.70870326 51.45052876 30.52208296 48.78569825 26.31616211 46.14916992 C24.77796343 45.17845258 23.2473701 44.19557289 21.72485352 43.20043945 C17.92298835 40.73024032 14.18287106 38.56977943 10.05078125 36.6953125 C0.81309846 32.22064951 0.81309846 32.22064951 -2 28 C-4.08031488 20.07082056 -3.61565658 11.00285912 -2 3 C-1.34 2.01 -0.68 1.02 0 0 Z " fill="#0068B0" transform="translate(20,36)"/>
<path d="M0 0 C3.64784652 1.34024101 6.72153766 2.97861143 9.95703125 5.125 C10.89796631 5.74487793 11.83890137 6.36475586 12.80834961 7.00341797 C13.79971924 7.66229004 14.79108887 8.32116211 15.8125 9 C23.6315085 14.15731067 31.4768564 19.24597587 39.4777832 24.1171875 C41.00085877 25.05308992 42.50329866 26.02247373 44 27 C44 27.33 44 27.66 44 28 C21.01101498 31.96537678 -1.987718 35.85870227 -25.01977539 39.56665039 C-32.61860072 40.79105847 -40.21381526 42.02177609 -47.79296875 43.36328125 C-48.90921631 43.55897705 -50.02546387 43.75467285 -51.17553711 43.95629883 C-53.13243453 44.30236494 -55.08789055 44.65676095 -57.04125977 45.0222168 C-62.70694212 46.01947722 -67.93597055 46.64819926 -73.21484375 43.80859375 C-74.80989583 42.5390625 -76.40494792 41.26953125 -78 40 C-66.98170601 32.65447067 -47.14368255 32.91553776 -34.3125 30.9375 C-30.89881784 30.40838774 -27.48528135 29.87834852 -24.07182312 29.34779358 C-21.96489763 29.02061573 -19.85782254 28.69439907 -17.75056458 28.36936951 C-14.83288724 27.91799213 -11.91629636 27.46021022 -9 27 C-7.8886972 26.827034 -6.77739441 26.65406799 -5.63241577 26.4758606 C-4.54095245 26.30150482 -3.44948914 26.12714905 -2.32495117 25.94750977 C-1.32928635 25.79008804 -0.33362152 25.63266632 0.69221497 25.47047424 C2.95338262 25.23048649 2.95338262 25.23048649 4 24 C3.64003812 19.77044791 2.7383195 16.03808896 1.4375 12 C0.11038742 7.78673968 -0.28658036 4.39423211 0 0 Z " fill="#D66B6B" transform="translate(196,77)"/>
</svg>
